<svg xmlns="http://www.w3.org/2000/svg" xmlns:xlink="http://www.w3.org/1999/xlink" width="421.091" height="512" viewBox="0 0 421.091 512"><defs><style>.a{fill:url(#a);}.b{fill:#fff;stroke:#707070;}.c{stroke:none;}.d{fill:none;}</style><linearGradient id="a" x1="0.5" x2="0.061" y2="0.92" gradientUnits="objectBoundingBox"><stop offset="0" stop-color="#a000df"/><stop offset="1" stop-color="#00a8ff"/></linearGradient></defs><g transform="translate(2168.001 11539)"><g transform="translate(-2168.001 -11539)"><path class="a" d="M477.108,510.43s-105.822,27.739-211.371,27.739c-105,0-209.72-27.739-209.72-27.739l30.073-341.9h71.687V157.633c0-72.6,40.843-131.465,109.219-131.465S372.909,85.032,372.909,157.633v10.894h74.125ZM328.9,157.633c0-54.454-10.614-98.6-61.9-98.6s-61.9,44.146-61.9,98.6v10.894h123.8V157.633Z" transform="translate(-56.016 -26.169)"/></g><g class="b" transform="translate(-2061.077 -11357.952)"><circle class="c" cx="15" cy="15" r="15"/><circle class="d" cx="15" cy="15" r="14.5"/></g><g class="b" transform="translate(-1887.058 -11357.952)"><circle class="c" cx="15" cy="15" r="15"/><circle class="d" cx="15" cy="15" r="14.5"/></g></g></svg>