<svg xmlns="http://www.w3.org/2000/svg" xmlns:xlink="http://www.w3.org/1999/xlink" width="246" height="77" viewBox="0 0 246 77">
  <defs>
    <linearGradient id="linear-gradient" x1="0.5" x2="0.5" y2="1" gradientUnits="objectBoundingBox">
      <stop offset="0" stop-color="#3d63f1"/>
      <stop offset="1" stop-color="#1f3279"/>
    </linearGradient>
    <clipPath id="clip-path">
      <rect id="Rechteck_1" data-name="Rechteck 1" width="64" height="77" fill="url(#linear-gradient)"/>
    </clipPath>
  </defs>
  <g id="logo-color" transform="translate(2104 -7142)">
    <g id="Gruppe_2" data-name="Gruppe 2" transform="translate(-2104 7151)">
      <g id="Gruppe_1" data-name="Gruppe 1" transform="translate(0 -9)" clip-path="url(#clip-path)">
        <path id="Pfad_1" data-name="Pfad 1" d="M50.589,25.062V20.251C50.591,9.619,42.354,1,32.194,1S13.8,9.619,13.8,20.251l0,4.811H0V65.969A11.773,11.773,0,0,0,11.5,78H52.888a11.773,11.773,0,0,0,11.5-12.031V25.062ZM22.994,20.251a9.419,9.419,0,0,1,9.2-9.625,9.419,9.419,0,0,1,9.2,9.625v4.811h-18.4ZM45.988,38.3a3.614,3.614,0,1,1,3.45-3.61A3.533,3.533,0,0,1,45.988,38.3Zm-27.595,0a3.614,3.614,0,1,1,3.45-3.61,3.533,3.533,0,0,1-3.45,3.61Z" transform="translate(0 -1)" fill="url(#linear-gradient)"/>
      </g>
      <text id="WromoX" transform="translate(61 38)" fill="#141f38" font-size="44" font-family="SegoeUI-Bold, Segoe UI" font-weight="700"><tspan x="0" y="0">WromoX</tspan></text>
      <text id="Next_Studio" data-name="Next Studio" transform="translate(75 62)" fill="#141f38" font-size="23" font-family="SegoeUI-Bold, Segoe UI" font-weight="700"><tspan x="0" y="0">Next Studio</tspan></text>
    </g>
  </g>
</svg>
