<svg xmlns="http://www.w3.org/2000/svg" xmlns:xlink="http://www.w3.org/1999/xlink" width="800.995" height="801.219" viewBox="0 0 800.995 801.219"><defs><linearGradient id="a" x1="0.172" y1="0.751" x2="0.802" y2="0.427" gradientUnits="objectBoundingBox"><stop offset="0" stop-color="#0019ff"/><stop offset="0.236" stop-color="#c500ff"/><stop offset="0.536" stop-color="#ffef0d"/><stop offset="0.713" stop-color="#fa0"/><stop offset="1" stop-color="#2a00d8"/></linearGradient></defs><path d="M593.673,170.5a456.964,456.964,0,0,0,32-119.534A388.117,388.117,0,0,0,551.594,8.635C481.083,304.629,341.6,566.1,151.7,758.428c2.032,1.808,4.1,3.52,6.144,5.3C269.6,670.19,474.3,469.426,593.673,170.5ZM779.99,264.486A454.2,454.2,0,0,0,731.35,163.592C593.977,430.466,400.637,642.782,173.33,776.38c2.816,2.192,5.616,4.416,8.5,6.544C327.6,716.013,597.321,560.208,779.99,264.486Zm24.544,171.2c-176,176.956-381.017,300.954-599.8,362.761,5.312,3.392,10.7,6.608,16.16,9.728A1334.791,1334.791,0,0,0,778.534,574.447,475.015,475.015,0,0,0,804.485,435.7Zm-451.927-5.008c11.024-20.272,21.872-41.6,32.543-63.471A1711.327,1711.327,0,0,1,258.32,8.171,388.633,388.633,0,0,0,177.17,55.61v1.024A1367.975,1367.975,0,0,0,352.606,430.707Zm-75.534,124.67c10.9-16.224,21.792-32.975,32.719-50.655a1609.877,1609.877,0,0,1-231.675-341.7A453.511,453.511,0,0,0,29.4,263.59,1289.912,1289.912,0,0,0,277.072,555.344ZM229.6,622.175A1483.957,1483.957,0,0,1,4.533,434.978a475.078,475.078,0,0,0,25.6,138.461,1224.931,1224.931,0,0,0,159.2,99.79Q208.8,649.582,229.6,622.143ZM452.54,777.164a1383.193,1383.193,0,0,0,135.9,30.9q8.224-4.688,16.239-9.776c-32.111-8.992-69.311-20.9-110.4-36.8q-21.04,8.352-41.727,15.744Zm91.2-36.543c30.911,16.784,59.2,30.655,83.95,42.063,2.88-2.128,5.664-4.368,8.5-6.576-21.039-12.368-44.975-27.2-71.087-45.119-7.248,3.312-14.368,6.48-21.472,9.616Zm67.439-32.239c-4.8,2.464-9.6,5.056-14.4,7.424C616.6,734,635,749.964,651.416,763.628c2.144-1.856,4.3-3.648,6.4-5.536-14.176-14.256-29.839-30.8-46.671-49.743Z" transform="translate(-3.99 -7.474)" stroke="#fff" stroke-width="1" fill="url(#a)"/></svg>