<svg xmlns="http://www.w3.org/2000/svg" xmlns:xlink="http://www.w3.org/1999/xlink" width="51.094" height="51.218" viewBox="0 0 51.094 51.218"><defs><linearGradient id="a" x1="0.172" y1="0.751" x2="0.802" y2="0.427" gradientUnits="objectBoundingBox"><stop offset="0" stop-color="#0019ff"/><stop offset="0.236" stop-color="#c500ff"/><stop offset="0.536" stop-color="#ffef0d"/><stop offset="0.713" stop-color="#fa0"/><stop offset="1" stop-color="#2a00d8"/></linearGradient></defs><g transform="translate(0.546 0.694)"><path d="M41.355,18.317a28.561,28.561,0,0,0,2-7.471A24.258,24.258,0,0,0,38.725,8.2C34.318,26.7,25.6,43.042,13.731,55.063c.127.113.256.22.384.331C21.1,49.548,33.894,37,41.355,18.317ZM53,24.191a28.388,28.388,0,0,0-3.04-6.306c-8.586,16.68-20.67,29.95-34.877,38.3.176.137.351.276.531.409C24.725,52.412,41.583,42.674,53,24.191Zm1.534,10.7c-11,11.06-23.814,18.81-37.488,22.673.332.212.669.413,1.01.608A83.426,83.426,0,0,0,52.909,43.564a29.689,29.689,0,0,0,1.622-8.672Zm-28.246-.313c.689-1.267,1.367-2.6,2.034-3.967a106.959,106.959,0,0,1-7.927-22.44,24.29,24.29,0,0,0-5.072,2.965V11.2a85.5,85.5,0,0,0,10.965,23.38ZM21.567,42.37c.681-1.014,1.362-2.061,2.045-3.166A100.62,100.62,0,0,1,9.132,17.847a28.345,28.345,0,0,0-3.045,6.288A80.621,80.621,0,0,0,21.567,42.37ZM18.6,46.547a92.749,92.749,0,0,1-14.067-11.7,29.693,29.693,0,0,0,1.6,8.654,76.56,76.56,0,0,0,9.95,6.237Q17.3,48.26,18.6,46.545Zm13.934,9.687a86.453,86.453,0,0,0,8.494,1.931q.514-.293,1.015-.611c-2.007-.562-4.332-1.306-6.9-2.3q-1.315.522-2.608.984Zm5.7-2.284c1.932,1.049,3.7,1.916,5.247,2.629.18-.133.354-.273.531-.411-1.315-.773-2.811-1.7-4.443-2.82C39.116,53.555,38.671,53.753,38.227,53.949Zm4.215-2.015c-.3.154-.6.316-.9.464,1.239,1.137,2.389,2.135,3.415,2.989.134-.116.269-.228.4-.346-.886-.891-1.865-1.925-2.917-3.109Z" transform="translate(-4.531 -8.172)" stroke="#fff" stroke-width="1" fill="url(#a)"/></g></svg>