<svg xmlns="http://www.w3.org/2000/svg" xmlns:xlink="http://www.w3.org/1999/xlink" width="94" height="23.143" viewBox="0 0 94 23.143"><defs><style>.a{fill:#10b981;}.b{clip-path:url(#a);}.c,.d{fill:#141f38;font-family:Magneto-Bold, Magneto;font-weight:700;}.c{font-size:16px;}.d{font-size:8px;}</style><clipPath id="a"><rect class="a" width="20.25" height="23.143" transform="translate(0 1)"/></clipPath></defs><g transform="translate(2104 -7153)"><g transform="translate(-2104 7152)"><g class="b"><path class="a" d="M15.911,8.232V6.786a5.786,5.786,0,0,0-11.571,0V8.232H0V20.527a3.616,3.616,0,0,0,3.616,3.616H16.634a3.616,3.616,0,0,0,3.616-3.616V8.232ZM7.232,6.786a2.893,2.893,0,1,1,5.786,0V8.232H7.232Zm7.232,5.424a1.085,1.085,0,1,1,1.085-1.085A1.085,1.085,0,0,1,14.464,12.21Zm-8.679,0a1.085,1.085,0,1,1,1.085-1.085A1.085,1.085,0,0,1,5.786,12.21Z"/></g><text class="c" transform="translate(19 16)"><tspan x="0" y="0">WromoX</tspan></text><text class="d" transform="translate(27 22)"><tspan x="0" y="0">Next Studio</tspan></text></g></g></svg>