<svg version="1.1" id="Camada_1" xmlns="http://www.w3.org/2000/svg" xmlns:xlink="http://www.w3.org/1999/xlink" x="0px" y="0px" viewBox="0 0 371.9 533.3" enable-background="new 0 0 371.9 533.3" xml:space="preserve"><g><path fill="#34A853" d="M102.4,395.2c16.5,20.6,33.2,46.4,42,62c10.7,20.3,15.1,34,23.1,58.5c4.7,13.5,9.1,17.6,18.4,17.6
c10.2,0,14.8-6.9,18.4-17.6c7.4-23.1,13.2-40.6,22.2-57.4c17.8-32.1,40.4-60.7,62.3-88.1c6-7.7,44.5-53,61.8-89
c0,0,21.1-39.3,21.1-94.2c0-51.3-20.9-87-20.9-87l-60.4,16.2l-36.8,96.7l-9.1,13.2l-1.9,2.5l-2.5,3l-4.1,4.9l-6,6l-32.7,26.6
l-81.6,47.2L102.4,395.2z"/><path fill="#FBBC04" d="M18.1,274.6c20,45.6,58.2,85.4,84.3,120.6l138.1-163.7c0,0-19.5,25.5-54.6,25.5
c-39.3,0-71.1-31.3-71.1-70.8c0-27.2,16.2-45.8,16.2-45.8l-93.7,25L18.1,274.6z"/><path fill="#4285F4" d="M242.2,8.5c45.8,14.8,85.1,45.8,108.8,91.7L240.5,231.8c0,0,16.2-18.9,16.2-45.8c0-40.4-34-70.8-70.8-70.8
c-34.9,0-54.9,25.3-54.9,25.3v-83L242.2,8.5z"/><path fill="#1A73E8" d="M43.4,66.4C70.8,33.7,118.9,0,185.3,0c32.1,0,56.6,8.5,56.6,8.5L131,140.3H52.4L43.4,66.4z"/><path fill="#EA4335" d="M18.1,274.6c0,0-18.1-36-18.1-87.9c0-49.1,19.2-92,43.6-120l87.6,73.9L18.1,274.6z"/></g></svg>