<svg version="1.1" id="Camada_1" xmlns="http://www.w3.org/2000/svg" xmlns:xlink="http://www.w3.org/1999/xlink" x="0px" y="0px" viewBox="0 0 649.8 750.3" enable-background="new 0 0 649.8 750.3" xml:space="preserve"><g id="Layer_2"><rect x="-321.1" y="-2154.7" width="1400" height="1500"/></g><g id="Layer_3"><rect x="1078.9" y="-2154.7" width="1400" height="1500"/></g><g id="Layer_1"><linearGradient id="SVGID_1_" gradientUnits="userSpaceOnUse" x1="0" y1="375.15" x2="649.78" y2="375.15"><stop offset="0" style="stop-color:#6917D0"/><stop offset="1" style="stop-color:#07BEB8"/></linearGradient><polygon fill="url(#SVGID_1_)" points="649.8,312.6 649.8,187.6 541.5,125.1 433.2,62.5 433.2,62.5 324.9,0 216.6,62.5 216.6,62.5 216.6,62.5 216.6,62.5 108.3,125.1 0,187.6 0,312.6 108.3,375.1 216.6,437.7 216.6,437.7 324.9,500.2 324.9,375.1 433.2,437.7 433.2,437.7 541.5,500.2 433.2,562.7 433.2,562.7 324.9,625.2 324.9,625.2 216.6,562.7 216.6,562.7 108.3,500.2 108.3,375.1 0,437.7 0,562.7 108.3,625.2 216.6,687.8 216.6,687.8 324.9,750.3 433.2,687.8 433.2,687.8 433.2,687.8 541.5,625.2 649.8,562.7 649.8,437.7 541.5,375.1 433.2,312.6 433.2,312.6 324.9,250.1 324.9,375.1 216.6,312.6 216.6,312.6 108.3,250.1 216.6,187.6 216.6,187.6 324.9,125.1 324.9,125.1 433.2,187.6 433.2,187.6 541.5,250.1 541.5,375.1 "/><linearGradient id="SVGID_00000015326023092790651660000000005917600178655634_" gradientUnits="userSpaceOnUse" x1="1454" y1="-1404.715" x2="2103.78" y2="-1404.715"><stop offset="0" style="stop-color:#6917D0"/><stop offset="1" style="stop-color:#07BEB8"/></linearGradient><polygon fill="url(#SVGID_00000015326023092790651660000000005917600178655634_)" points="2103.8,-1467.2 2103.8,-1592.3 1995.5,-1654.8 1887.2,-1717.3 1887.2,-1717.3 1778.9,-1779.9 1670.6,-1717.3 1670.6,-1717.3 1670.6,-1717.3 1670.6,-1717.3 1562.3,-1654.8 1454,-1592.3 1454,-1467.2 1562.3,-1404.7 1670.6,-1342.2 1670.6,-1342.2 1778.9,-1279.7 1778.9,-1404.7 1887.2,-1342.2 1887.2,-1342.2 1995.5,-1279.7 1887.2,-1217.1 1887.2,-1217.1 1778.9,-1154.6 1778.9,-1154.6 1670.6,-1217.1 1670.6,-1217.1 1562.3,-1279.7 1562.3,-1404.7 1454,-1342.2 1454,-1217.1 1562.3,-1154.6 1670.6,-1092.1 1670.6,-1092.1 1778.9,-1029.6 1887.2,-1092.1 1887.2,-1092.1 1887.2,-1092.1 1995.5,-1154.6 2103.8,-1217.1 2103.8,-1342.2 1995.5,-1404.7 1887.2,-1467.2 1887.2,-1467.2 1778.9,-1529.8 1778.9,-1404.7 1670.6,-1467.2 1670.6,-1467.2 1562.3,-1529.8 1670.6,-1592.3 1670.6,-1592.3 1778.9,-1654.8 1778.9,-1654.8 1887.2,-1592.3 1887.2,-1592.3 1995.5,-1529.8 1995.5,-1404.7 "/></g></svg>